<svg xmlns="http://www.w3.org/2000/svg" xmlns:xlink="http://www.w3.org/1999/xlink" viewBox="0 0 1200.46 850"><defs><style>.a{mask:url(#a);filter:url(#af);}.b,.d,.f,.h,.j,.l,.n,.p,.r,.t{mix-blend-mode:multiply;}.b{fill:url(#c);}.c{mask:url(#d);filter:url(#au);}.d{fill:url(#f);}.e{mask:url(#g);filter:url(#ax);}.f{fill:url(#i);}.g{mask:url(#j);filter:url(#ba);}.h{fill:url(#l);}.i{mask:url(#m);filter:url(#bd);}.j{fill:url(#o);}.k{mask:url(#p);filter:url(#bg);}.l{fill:url(#r);}.m{mask:url(#s);filter:url(#ai);}.n{fill:url(#u);}.o{mask:url(#v);filter:url(#al);}.p{fill:url(#x);}.q{mask:url(#y);filter:url(#ao);}.r{fill:url(#aa);}.s{mask:url(#ab);filter:url(#ar);}.t{fill:url(#ad);}.u{fill:#f2f2f2;}.v{mask:url(#ae);}.w{fill:url(#ag);}.x{mask:url(#ah);}.y{fill:url(#aj);}.z{mask:url(#ak);}.aa{fill:url(#am);}.ab{mask:url(#an);}.ac{fill:url(#ap);}.ad{mask:url(#aq);}.ae{fill:url(#as);}.af{mask:url(#at);}.ag{fill:url(#av);}.ah{mask:url(#aw);}.ai{fill:url(#ay);}.aj{mask:url(#az);}.ak{fill:url(#bb);}.al{mask:url(#bc);}.am{fill:url(#be);}.an{mask:url(#bf);}.ao{fill:url(#bh);}.ap{filter:url(#ac);}.aq{filter:url(#z);}.ar{filter:url(#w);}.as{filter:url(#t);}.at{filter:url(#q);}.au{filter:url(#n);}.av{filter:url(#k);}.aw{filter:url(#h);}.ax{filter:url(#e);}.ay{filter:url(#b);}</style><filter id="b" x="0" y="-8617" width="766.3" height="32766" filterUnits="userSpaceOnUse" color-interpolation-filters="sRGB"><feFlood flood-color="#fff" result="bg"/><feBlend in="SourceGraphic" in2="bg"/></filter><mask id="a" x="0" y="-8617" width="766.3" height="32766" maskUnits="userSpaceOnUse"><g class="ay"/></mask><linearGradient id="c" y1="110.33" x2="766.3" y2="110.33" gradientUnits="userSpaceOnUse"><stop offset="0"/><stop offset="1" stop-color="#fff"/></linearGradient><filter id="e" x="607.62" y="-8617" width="592.84" height="32766" filterUnits="userSpaceOnUse" color-interpolation-filters="sRGB"><feFlood flood-color="#fff" result="bg"/><feBlend in="SourceGraphic" in2="bg"/></filter><mask id="d" x="607.62" y="-8617" width="592.84" height="32766" maskUnits="userSpaceOnUse"><g class="ax"/></mask><linearGradient id="f" x1="624.29" y1="613.76" x2="548.32" y2="767.17" gradientTransform="translate(1636.62 1245.1) rotate(180)" xlink:href="#c"/><filter id="h" x="752.45" y="-8617" width="448.01" height="32766" filterUnits="userSpaceOnUse" color-interpolation-filters="sRGB"><feFlood flood-color="#fff" result="bg"/><feBlend in="SourceGraphic" in2="bg"/></filter><mask id="g" x="752.45" y="-8617" width="448.01" height="32766" maskUnits="userSpaceOnUse"><g class="aw"/></mask><linearGradient id="i" x1="655.52" y1="427.52" x2="669.1" y2="555.93" gradientTransform="translate(1636.62 1245.1) rotate(180)" xlink:href="#c"/><filter id="k" x="527.79" y="-8617" width="672.67" height="32766" filterUnits="userSpaceOnUse" color-interpolation-filters="sRGB"><feFlood flood-color="#fff" result="bg"/><feBlend in="SourceGraphic" in2="bg"/></filter><mask id="j" x="527.79" y="-8617" width="672.67" height="32766" maskUnits="userSpaceOnUse"><g class="av"/></mask><linearGradient id="l" x1="777.92" y1="618.01" x2="808.76" y2="822.47" gradientTransform="translate(1636.62 1245.1) rotate(180)" xlink:href="#c"/><filter id="n" x="0" y="-8617" width="1150.02" height="32766" filterUnits="userSpaceOnUse" color-interpolation-filters="sRGB"><feFlood flood-color="#fff" result="bg"/><feBlend in="SourceGraphic" in2="bg"/></filter><mask id="m" x="0" y="-8617" width="1150.02" height="32766" maskUnits="userSpaceOnUse"><g class="au"/></mask><linearGradient id="o" x1="533.62" y1="298.12" x2="676.5" y2="643.96" xlink:href="#c"/><filter id="q" x="50.44" y="-8617" width="1150.02" height="32766" filterUnits="userSpaceOnUse" color-interpolation-filters="sRGB"><feFlood flood-color="#fff" result="bg"/><feBlend in="SourceGraphic" in2="bg"/></filter><mask id="p" x="50.44" y="-8617" width="1150.02" height="32766" maskUnits="userSpaceOnUse"><g class="at"/></mask><linearGradient id="r" x1="718.47" y1="382.55" x2="861.35" y2="728.4" gradientTransform="translate(1385.31 934.44) rotate(180)" xlink:href="#c"/><filter id="t" x="0" y="-8617" width="592.84" height="32766" filterUnits="userSpaceOnUse" color-interpolation-filters="sRGB"><feFlood flood-color="#fff" result="bg"/><feBlend in="SourceGraphic" in2="bg"/></filter><mask id="s" x="0" y="-8617" width="592.84" height="32766" maskUnits="userSpaceOnUse"><g class="as"/></mask><linearGradient id="u" x1="188.13" y1="218.65" x2="112.16" y2="372.07" xlink:href="#c"/><filter id="w" x="0" y="-8617" width="448.01" height="32766" filterUnits="userSpaceOnUse" color-interpolation-filters="sRGB"><feFlood flood-color="#fff" result="bg"/><feBlend in="SourceGraphic" in2="bg"/></filter><mask id="v" x="0" y="-8617" width="448.01" height="32766" maskUnits="userSpaceOnUse"><g class="ar"/></mask><linearGradient id="x" x1="219.36" y1="32.41" x2="232.94" y2="160.83" xlink:href="#c"/><filter id="z" x="0" y="-8617" width="672.67" height="32766" filterUnits="userSpaceOnUse" color-interpolation-filters="sRGB"><feFlood flood-color="#fff" result="bg"/><feBlend in="SourceGraphic" in2="bg"/></filter><mask id="y" x="0" y="-8617" width="672.67" height="32766" maskUnits="userSpaceOnUse"><g class="aq"/></mask><linearGradient id="aa" x1="341.76" y1="222.9" x2="372.6" y2="427.37" xlink:href="#c"/><filter id="ac" x="434.16" y="-8617" width="766.3" height="32766" filterUnits="userSpaceOnUse" color-interpolation-filters="sRGB"><feFlood flood-color="#fff" result="bg"/><feBlend in="SourceGraphic" in2="bg"/></filter><mask id="ab" x="434.16" y="-8617" width="766.3" height="32766" maskUnits="userSpaceOnUse"><g class="ap"/></mask><linearGradient id="ad" x1="436.16" y1="505.44" x2="1202.46" y2="505.44" gradientTransform="translate(1636.62 1245.1) rotate(180)" xlink:href="#c"/><filter id="af" x="0" y="0" width="766.3" height="220.66" filterUnits="userSpaceOnUse" color-interpolation-filters="sRGB"><feFlood flood-color="#fff" result="bg"/><feBlend in="SourceGraphic" in2="bg"/></filter><mask id="ae" x="0" y="0" width="766.3" height="220.66" maskUnits="userSpaceOnUse"><g class="a"><path class="b" d="M766.3,0A1286.62,1286.62,0,0,0,631.71,33.6a1166.09,1166.09,0,0,0-163.41,64c-52,25.09-90.6,48.55-129.22,68.25-37,18.87-74,34.29-122.82,44.43-88.15,18.28-165.14,9-216.26-1.68V0Z"/></g></mask><linearGradient id="ag" y1="110.33" x2="766.3" y2="110.33" gradientUnits="userSpaceOnUse"><stop offset="0" stop-color="#e6e7e8"/><stop offset="1" stop-color="#a7a9ac"/></linearGradient><filter id="ai" x="0" y="0" width="592.84" height="324.73" filterUnits="userSpaceOnUse" color-interpolation-filters="sRGB"><feFlood flood-color="#fff" result="bg"/><feBlend in="SourceGraphic" in2="bg"/></filter><mask id="ah" x="0" y="0" width="592.84" height="324.73" maskUnits="userSpaceOnUse"><g class="m"><path class="n" d="M592.84,0A615.9,615.9,0,0,0,471.27,56.09c-60.79,36.59-99,74.21-132.19,109.76C299,208.76,266.38,248.63,210.33,280,168.05,303.6,101.33,328.57,0,324.23V0Z"/></g></mask><linearGradient id="aj" x1="188.13" y1="218.65" x2="112.16" y2="372.07" xlink:href="#ag"/><filter id="al" x="0" y="0" width="448.01" height="159.01" filterUnits="userSpaceOnUse" color-interpolation-filters="sRGB"><feFlood flood-color="#fff" result="bg"/><feBlend in="SourceGraphic" in2="bg"/></filter><mask id="ak" x="0" y="0" width="448.01" height="159.01" maskUnits="userSpaceOnUse"><g class="o"><path class="p" d="M448,0c-19.94,7-37.4,14-52.35,20.51-125.8,55-167.35,114.92-271.32,133.43C77.65,162.26,35,159.25,0,152.69V0Z"/></g></mask><linearGradient id="am" x1="219.36" y1="32.41" x2="232.94" y2="160.83" xlink:href="#ag"/><filter id="ao" x="0" y="0" width="672.67" height="374.78" filterUnits="userSpaceOnUse" color-interpolation-filters="sRGB"><feFlood flood-color="#fff" result="bg"/><feBlend in="SourceGraphic" in2="bg"/></filter><mask id="an" x="0" y="0" width="672.67" height="374.78" maskUnits="userSpaceOnUse"><g class="q"><path class="r" d="M672.67,0c-10.8,10.09-24.63,21.27-41,33.6-65.12,49.16-170,116.54-280.53,204.85a776.11,776.11,0,0,1-80.06,56.34C233.45,317.93,191,344,134.72,360,106,368.2,59.67,377.71,0,373.93V0Z"/></g></mask><linearGradient id="ap" x1="341.76" y1="222.9" x2="372.6" y2="427.37" xlink:href="#ag"/><filter id="ar" x="434.16" y="629.34" width="766.3" height="220.66" filterUnits="userSpaceOnUse" color-interpolation-filters="sRGB"><feFlood flood-color="#fff" result="bg"/><feBlend in="SourceGraphic" in2="bg"/></filter><mask id="aq" x="434.16" y="629.34" width="766.3" height="220.66" maskUnits="userSpaceOnUse"><g class="s"><path class="t" d="M434.16,850a1286.62,1286.62,0,0,0,134.59-33.6,1166.09,1166.09,0,0,0,163.41-64c52-25.09,90.6-48.55,129.22-68.25,37-18.87,74-34.29,122.82-44.43,88.15-18.28,165.14-9,216.26,1.68V850Z"/></g></mask><linearGradient id="as" x1="436.16" y1="505.44" x2="1202.46" y2="505.44" gradientTransform="translate(1636.62 1245.1) rotate(180)" xlink:href="#ag"/><filter id="au" x="607.62" y="525.27" width="592.84" height="324.73" filterUnits="userSpaceOnUse" color-interpolation-filters="sRGB"><feFlood flood-color="#fff" result="bg"/><feBlend in="SourceGraphic" in2="bg"/></filter><mask id="at" x="607.62" y="525.27" width="592.84" height="324.73" maskUnits="userSpaceOnUse"><g class="c"><path class="d" d="M607.62,850a615.9,615.9,0,0,0,121.57-56.09c60.79-36.59,99-74.21,132.19-109.76,40-42.91,72.7-82.78,128.75-114.11,42.28-23.64,109-48.61,210.33-44.27V850Z"/></g></mask><linearGradient id="av" x1="624.29" y1="613.76" x2="548.32" y2="767.17" gradientTransform="translate(1636.62 1245.1) rotate(180)" xlink:href="#ag"/><filter id="ax" x="752.45" y="690.99" width="448.01" height="159.01" filterUnits="userSpaceOnUse" color-interpolation-filters="sRGB"><feFlood flood-color="#fff" result="bg"/><feBlend in="SourceGraphic" in2="bg"/></filter><mask id="aw" x="752.45" y="690.99" width="448.01" height="159.01" maskUnits="userSpaceOnUse"><g class="e"><path class="f" d="M752.45,850c19.94-7,37.4-14,52.35-20.51,125.8-55,167.35-114.92,271.32-133.43,46.69-8.32,89.37-5.31,124.34,1.25V850Z"/></g></mask><linearGradient id="ay" x1="655.52" y1="427.52" x2="669.1" y2="555.93" gradientTransform="translate(1636.62 1245.1) rotate(180)" xlink:href="#ag"/><filter id="ba" x="527.79" y="475.22" width="672.67" height="374.78" filterUnits="userSpaceOnUse" color-interpolation-filters="sRGB"><feFlood flood-color="#fff" result="bg"/><feBlend in="SourceGraphic" in2="bg"/></filter><mask id="az" x="527.79" y="475.22" width="672.67" height="374.78" maskUnits="userSpaceOnUse"><g class="g"><path class="h" d="M527.79,850c10.8-10.09,24.63-21.27,41-33.6,65.12-49.16,170-116.54,280.53-204.85a776.11,776.11,0,0,1,80.06-56.34C967,532.07,1009.47,506,1065.74,490c28.76-8.18,75-17.69,134.72-13.91V850Z"/></g></mask><linearGradient id="bb" x1="777.92" y1="618.01" x2="808.76" y2="822.47" gradientTransform="translate(1636.62 1245.1) rotate(180)" xlink:href="#ag"/><filter id="bd" x="0" y="0" width="1150.02" height="796.62" filterUnits="userSpaceOnUse" color-interpolation-filters="sRGB"><feFlood flood-color="#fff" result="bg"/><feBlend in="SourceGraphic" in2="bg"/></filter><mask id="bc" x="0" y="0" width="1150.02" height="796.62" maskUnits="userSpaceOnUse"><g class="i"><path class="j" d="M1150,0a1140.83,1140.83,0,0,0-225.4,95.26c-15.21,8.43-81.22,45.47-165.35,110.24C523.47,387,483.3,526.25,313.52,655.09,246.25,706.14,144.91,766,0,796.62V0Z"/></g></mask><linearGradient id="be" x1="533.62" y1="298.12" x2="676.5" y2="643.96" xlink:href="#ag"/><filter id="bg" x="50.44" y="53.38" width="1150.02" height="796.62" filterUnits="userSpaceOnUse" color-interpolation-filters="sRGB"><feFlood flood-color="#fff" result="bg"/><feBlend in="SourceGraphic" in2="bg"/></filter><mask id="bf" x="50.44" y="53.38" width="1150.02" height="796.62" maskUnits="userSpaceOnUse"><g class="k"><path class="l" d="M50.44,850a1140.83,1140.83,0,0,0,225.4-95.26c15.21-8.43,81.22-45.47,165.35-110.24C677,463,717.16,323.75,886.94,194.91c67.27-51,168.61-110.88,313.52-141.53V850Z"/></g></mask><linearGradient id="bh" x1="718.47" y1="382.55" x2="861.35" y2="728.4" gradientTransform="translate(1385.31 934.44) rotate(180)" xlink:href="#ag"/></defs><rect class="u" width="1200" height="850"/><g class="v"><path class="w" d="M766.3,0A1286.62,1286.62,0,0,0,631.71,33.6a1166.09,1166.09,0,0,0-163.41,64c-52,25.09-90.6,48.55-129.22,68.25-37,18.87-74,34.29-122.82,44.43-88.15,18.28-165.14,9-216.26-1.68V0Z"/></g><g class="x"><path class="y" d="M592.84,0A615.9,615.9,0,0,0,471.27,56.09c-60.79,36.59-99,74.21-132.19,109.76C299,208.76,266.38,248.63,210.33,280,168.05,303.6,101.33,328.57,0,324.23V0Z"/></g><g class="z"><path class="aa" d="M448,0c-19.94,7-37.4,14-52.35,20.51-125.8,55-167.35,114.92-271.32,133.43C77.65,162.26,35,159.25,0,152.69V0Z"/></g><g class="ab"><path class="ac" d="M672.67,0c-10.8,10.09-24.63,21.27-41,33.6-65.12,49.16-170,116.54-280.53,204.85a776.11,776.11,0,0,1-80.06,56.34C233.45,317.93,191,344,134.72,360,106,368.2,59.67,377.71,0,373.93V0Z"/></g><g class="ad"><path class="ae" d="M434.16,850a1286.62,1286.62,0,0,0,134.59-33.6,1166.09,1166.09,0,0,0,163.41-64c52-25.09,90.6-48.55,129.22-68.25,37-18.87,74-34.29,122.82-44.43,88.15-18.28,165.14-9,216.26,1.68V850Z"/></g><g class="af"><path class="ag" d="M607.62,850a615.9,615.9,0,0,0,121.57-56.09c60.79-36.59,99-74.21,132.19-109.76,40-42.91,72.7-82.78,128.75-114.11,42.28-23.64,109-48.61,210.33-44.27V850Z"/></g><g class="ah"><path class="ai" d="M752.45,850c19.94-7,37.4-14,52.35-20.51,125.8-55,167.35-114.92,271.32-133.43,46.69-8.32,89.37-5.31,124.34,1.25V850Z"/></g><g class="aj"><path class="ak" d="M527.79,850c10.8-10.09,24.63-21.27,41-33.6,65.12-49.16,170-116.54,280.53-204.85a776.11,776.11,0,0,1,80.06-56.34C967,532.07,1009.47,506,1065.74,490c28.76-8.18,75-17.69,134.72-13.91V850Z"/></g><g class="al"><path class="am" d="M1150,0a1140.83,1140.83,0,0,0-225.4,95.26c-15.21,8.43-81.22,45.47-165.35,110.24C523.47,387,483.3,526.25,313.52,655.09,246.25,706.14,144.91,766,0,796.62V0Z"/></g><g class="an"><path class="ao" d="M50.44,850a1140.83,1140.83,0,0,0,225.4-95.26c15.21-8.43,81.22-45.47,165.35-110.24C677,463,717.16,323.75,886.94,194.91c67.27-51,168.61-110.88,313.52-141.53V850Z"/></g></svg>